# xmcd
#
# Track frame offsets:
# 150
# 17501
# 41337
# 72894
# 96411
# 111734
# 129058
# 147195
# 169409
# 196932
# 230601
# 253742
#
# Disc length: 3722 seconds
#
#
# Revision: 0
# Processed by: cddbd v1.5PL3 Copyright (c) Steve Scherf et al.
# Submitted via: FreeRIP 2.53 
#
DISCID=a70e880c
DTITLE=Paul fenton - Vancouver Blue
DYEAR=2002
DGENRE=Blues
TTITLE0=Highway 401
TTITLE1=Time
TTITLE2=God Moves on the Water
TTITLE3=Midnight Train
TTITLE4=Resurrection
TTITLE5=Gypsy Woman
TTITLE6=Luddite blues
TTITLE7=Twister
TTITLE8=Leaving blues
TTITLE9=T-Bone Walker Blues
TTITLE10=Way Down in Georgia
TTITLE11=Time (Live)
EXTD=BluesfestRadio.com
EXTT0=
EXTT1=
EXTT2=
EXTT3=
EXTT4=
EXTT5=
EXTT6=
EXTT7=
EXTT8=
EXTT9=
EXTT10=
EXTT11=
PLAYORDER=
